<svg width="24" height="24" viewBox="0 0 24 24" fill="none" xmlns="http://www.w3.org/2000/svg">
<path d="M23.3684 0H0.631598C0.282493 0 0 0.383383 0 0.857169V2.57143C0 3.04521 0.282493 3.42859 0.631598 3.42859H23.3684C23.7175 3.42859 24 3.04521 24 2.57143V0.857169C24 0.383383 23.7175 0 23.3684 0Z" fill="black"/>
<path d="M23.3684 10.2857H0.631598C0.282493 10.2857 0 10.6691 0 11.1429V12.8571C0 13.3309 0.282493 13.7143 0.631598 13.7143H23.3684C23.7175 13.7143 24 13.3309 24 12.8571V11.1429C24 10.6691 23.7175 10.2857 23.3684 10.2857Z" fill="black"/>
<path d="M23.3684 20.5714H0.631598C0.282493 20.5714 0 20.9548 0 21.4286V23.1428C0 23.6166 0.282493 24 0.631598 24H23.3684C23.7175 24 24 23.6166 24 23.1428V21.4286C24 20.9548 23.7175 20.5714 23.3684 20.5714Z" fill="black"/>
</svg>
