<svg width="25" height="25" viewBox="0 0 25 25" fill="none" xmlns="http://www.w3.org/2000/svg">
<path d="M0.394144 0H10.5856C10.8033 0 10.9797 0.176397 10.9797 0.394144V10.5856C10.9797 10.8033 10.8033 10.9797 10.5856 10.9797H0.394144C0.176397 10.9797 0 10.8033 0 10.5856V0.394144C0 0.176397 0.176397 0 0.394144 0Z" fill="black"/>
<path d="M14.4144 0H24.6058C24.8236 0 25 0.176397 25 0.394144V10.5856C25 10.8033 24.8236 10.9797 24.6058 10.9797H14.4144C14.1967 10.9797 14.0203 10.8033 14.0203 10.5856V0.394144C14.0203 0.176397 14.1967 0 14.4144 0Z" fill="black"/>
<path d="M0.394144 14.0203H10.5856C10.8033 14.0203 10.9797 14.1967 10.9797 14.4144V24.6059C10.9797 24.8236 10.8033 25 10.5856 25H0.394144C0.176397 25 0 24.8236 0 24.6059V14.4144C0 14.1967 0.176397 14.0203 0.394144 14.0203Z" fill="black"/>
<path d="M14.4144 14.0203H24.6058C24.8236 14.0203 25 14.1967 25 14.4144V24.6059C25 24.8236 24.8236 25 24.6058 25H14.4144C14.1967 25 14.0203 24.8236 14.0203 24.6059V14.4144C14.0203 14.1967 14.1967 14.0203 14.4144 14.0203Z" fill="black"/>
</svg>
