<svg width="60" height="62" viewBox="0 0 60 62" fill="none" xmlns="http://www.w3.org/2000/svg">
<path d="M60 30C60 46.5688 46.5688 60 30 60C13.4312 60 0 46.5688 0 30C0 13.4312 13.4312 0 30 0C46.5688 0 60 13.4312 60 30Z" fill="url(#paint0_linear)"/>
<path d="M36.8206 29.0552C39.5764 26.9797 41.3617 23.6819 41.3617 19.9745C41.3617 13.71 36.2649 8.61328 30 8.61328C23.7355 8.61328 18.6387 13.71 18.6387 19.9745C18.6387 23.6819 20.4236 26.9797 23.1793 29.0552C15.8011 31.8246 10.5354 38.9511 10.5354 47.2852H14.051C14.051 38.4906 21.2059 31.3362 30.0004 31.3362C38.7945 31.3362 45.9494 38.4906 45.9494 47.2852H49.465C49.4645 38.9511 44.1993 31.8246 36.8206 29.0552V29.0552ZM22.1544 19.9745C22.1544 15.6482 25.6736 12.1289 30 12.1289C34.3263 12.1289 37.8456 15.6482 37.8456 19.9745C37.8456 24.3008 34.3263 27.8206 30 27.8206C25.6736 27.8206 22.1544 24.3008 22.1544 19.9745V19.9745Z" fill="white"/>
<circle cx="49" cy="53" r="9" fill="white"/>
<path d="M49 45C44.5886 45 41 48.5886 41 53C41 57.4114 44.5886 61 49 61C53.4114 61 57 57.4114 57 53C57 48.5886 53.4114 45 49 45Z" fill="#2196F3"/>
<path d="M52.5 53.6666H49.6666V56.5C49.6666 56.868 49.368 57.1666 49 57.1666C48.632 57.1666 48.3334 56.868 48.3334 56.5V53.6666H45.5C45.132 53.6666 44.8334 53.368 44.8334 53C44.8334 52.632 45.132 52.3334 45.5 52.3334H48.3334V49.5C48.3334 49.132 48.632 48.8334 49 48.8334C49.368 48.8334 49.6666 49.132 49.6666 49.5V52.3334H52.5C52.868 52.3334 53.1666 52.632 53.1666 53C53.1666 53.368 52.868 53.6666 52.5 53.6666V53.6666Z" fill="#FAFAFA"/>
<defs>
<linearGradient id="paint0_linear" x1="0" y1="30" x2="60" y2="30" gradientUnits="userSpaceOnUse">
<stop stop-color="#00F38D"/>
<stop offset="1" stop-color="#009EFF"/>
</linearGradient>
</defs>
</svg>
